<!-- Generated by IcoMoon.io -->
<svg version="1.1" xmlns="http://www.w3.org/2000/svg" width="32" height="32" viewBox="0 0 32 32">
<title>twitter</title>
<path fill="#4d5ae5" d="M32 16c0 4.418-1.791 8.418-4.686 11.314s-6.895 4.686-11.314 4.686c-4.418 0-8.418-1.791-11.314-4.686s-4.686-6.895-4.686-11.314c0-4.418 1.791-8.418 4.686-11.314s6.895-4.686 11.314-4.686c4.418 0 8.418 1.791 11.314 4.686s4.686 6.895 4.686 11.314z"></path>
<path fill="#f4f4fd" d="M22.4 12.031c-0.44 0.197-0.95 0.343-1.485 0.411l-0.027 0.003c0.544-0.327 0.952-0.831 1.149-1.432l0.005-0.018c-0.479 0.289-1.037 0.509-1.63 0.629l-0.034 0.006c-0.48-0.512-1.161-0.832-1.916-0.832-1.449 0-2.623 1.174-2.623 2.623 0 0.001 0 0.003 0 0.004v0c0 0.208 0.018 0.408 0.061 0.598-2.187-0.11-4.111-1.151-5.398-2.731l-0.011-0.014c-0.225 0.379-0.358 0.836-0.358 1.324 0 0.906 0.458 1.705 1.156 2.177l0.009 0.006c-0.437-0.012-0.844-0.13-1.199-0.33l0.013 0.007v0.029c0 1.275 0.91 2.334 2.102 2.578-0.2 0.055-0.431 0.086-0.668 0.086-0.007 0-0.014 0-0.021 0h0.001c-0.168 0-0.338-0.010-0.497-0.045 0.35 1.049 1.309 1.798 2.448 1.828h0.004c-0.886 0.699-2.019 1.121-3.251 1.121-0.222 0-0.442-0.014-0.657-0.040l0.026 0.003c1.13 0.739 2.514 1.178 4.001 1.178 0.009 0 0.017 0 0.026 0h-0.001c4.829 0 7.469-4 7.469-7.467 0-0.12-0.004-0.238-0.011-0.356l0.001 0.017c0.521-0.37 0.958-0.831 1.315-1.362z"></path>
</svg>
